<svg xmlns="http://www.w3.org/2000/svg" xmlns:xlink="http://www.w3.org/1999/xlink">
  <symbol id="apple" viewBox="0 0 24 24" fill="currentColor">
    <path
      d="M16.46 5.79l.3.01a5.6 5.6 0 0 1 4.38 2.38c-.1.07-2.62 1.53-2.59 4.57.04 3.63 3.19 4.84 3.22 4.86-.02.08-.5 1.72-1.66 3.41-1 1.46-2.04 2.92-3.67 2.95-1.6.03-2.13-.96-3.96-.96-1.84 0-2.42.93-3.94.99-1.57.06-2.78-1.58-3.78-3.04-2.07-2.98-3.64-8.42-1.53-12.1a5.87 5.87 0 0 1 4.97-3c1.55-.03 3.01 1.04 3.96 1.04.95 0 2.73-1.29 4.6-1.1zM16.78 0a5.3 5.3 0 0 1-1.25 3.83 4.46 4.46 0 0 1-3.56 1.7 5.03 5.03 0 0 1 1.27-3.71A5.38 5.38 0 0 1 16.78 0z" />
  </symbol>

  <symbol id="rss" viewBox="0 0 24 24" fill="none" stroke="currentColor"
    stroke-width="2.5" stroke-linecap="round" stroke-linejoin="round">
    <path d="M4 11a9 9 0 0 1 9 9"></path>
    <path d="M4 4a16 16 0 0 1 16 16"></path>
    <circle cx="5" cy="19" r="1"></circle>
  </symbol>

  <symbol id="spotify" viewBox="0 0 24 24" fill="currentColor">
    <path
      d="M12 0a12 12 0 1 0 0 24 12 12 0 0 0 0-24zm4.87 17.66c-.2 0-.33-.06-.51-.18a12.03 12.03 0 0 0-6.2-1.6c-1.3 0-2.59.16-3.8.42-.19.04-.44.11-.59.11a.75.75 0 0 1-.75-.75c0-.5.29-.75.65-.82 1.48-.34 2.96-.53 4.49-.53 2.62 0 4.97.6 6.98 1.8.3.18.47.36.47.8 0 .43-.35.75-.74.75zm1.3-3.17c-.25 0-.42-.1-.6-.21a15.22 15.22 0 0 0-7.62-1.93c-1.51 0-2.83.21-3.91.5-.24.07-.37.14-.59.14a.94.94 0 0 1-.93-.95c0-.5.24-.86.74-1C6.61 10.67 8 10.4 10 10.4c3.15 0 6.18.78 8.57 2.2.4.24.55.53.55.96 0 .52-.41.94-.93.94zm1.5-3.7c-.25 0-.4-.06-.62-.18-2.18-1.3-5.55-2.02-8.8-2.02-1.63 0-3.29.16-4.8.57-.17.05-.4.14-.62.14-.64 0-1.13-.51-1.13-1.15 0-.65.4-1.02.84-1.15 1.71-.5 3.62-.74 5.7-.74 3.52 0 7.23.73 9.94 2.32.36.2.62.52.62 1.09 0 .65-.53 1.12-1.14 1.12z" />
  </symbol>

  <symbol id="twitter" viewBox="0 0 24 24" fill="currentColor">
    <path
      d="M24 4.37a9.6 9.6 0 0 1-2.83.8 5.04 5.04 0 0 0 2.17-2.8c-.95.58-2 1-3.13 1.22A4.86 4.86 0 0 0 16.61 2a4.99 4.99 0 0 0-4.79 6.2A13.87 13.87 0 0 1 1.67 2.92 5.12 5.12 0 0 0 3.2 9.67a4.82 4.82 0 0 1-2.23-.64v.07c0 2.44 1.7 4.48 3.95 4.95a4.84 4.84 0 0 1-2.22.08c.63 2.01 2.45 3.47 4.6 3.51A9.72 9.72 0 0 1 0 19.74 13.68 13.68 0 0 0 7.55 22c9.06 0 14-7.7 14-14.37v-.65c.96-.71 1.79-1.6 2.45-2.61z" />
  </symbol>

  <symbol id="left" viewBox="0 0 24 24" fill="none" stroke="currentColor" stroke-width="3.5"
    stroke-linecap="square" stroke-linejoin="arcs">
    <path d="M19 12H6M12 5l-7 7 7 7" />
  </symbol>
</svg>
