<?xml version="1.0" encoding="UTF-8"?>
<svg id="logo" viewBox="0 0 596 169" version="1.1" xmlns="http://www.w3.org/2000/svg"
  xmlns:xlink="http://www.w3.org/1999/xlink">
  <defs>
    <polygon id="path-1" points="-1.13686838e-13 0 158.907 0 158.907 68.62 -1.13686838e-13 68.62"></polygon>
    <polygon id="path-3" points="0 0 128.934 0 128.934 150.997 0 150.997"></polygon>
  </defs>
  <g id="newcastle-logo-3" stroke="none" stroke-width="1" fill="none" fill-rule="evenodd">
    <path
      d="M244.234,37.898 C244.137,30.438 240.64,26.458 234.588,26.458 C229.011,26.458 225.326,30.539 224.949,37.898 L244.234,37.898 Z M234.777,70.641 C219.558,70.641 209.632,59.791 209.632,43.772 C209.632,28.047 220.219,16.703 235.441,16.703 C249.905,16.703 258.98,26.955 258.98,44.17 C258.98,44.863 258.98,45.563 258.98,46.26 L224.759,46.26 C224.759,55.217 228.635,60.094 235.345,60.094 C240.074,60.094 243.664,57.305 244.991,52.428 L258.697,53.623 C255.48,64.471 246.784,70.641 234.777,70.641 L234.777,70.641 Z"
      id="Fill-1" fill="currentColor"></path>
    <path
      d="M580.341,37.898 C580.241,30.438 576.745,26.458 570.694,26.458 C565.116,26.458 561.429,30.539 561.054,37.898 L580.341,37.898 Z M570.882,70.641 C555.661,70.641 545.733,59.791 545.733,43.772 C545.733,28.047 556.323,16.703 571.546,16.703 C586.011,16.703 595.085,26.955 595.085,44.17 C595.085,44.863 595.085,45.563 595.085,46.26 L560.864,46.26 C560.864,55.217 564.739,60.094 571.45,60.094 C576.179,60.094 579.769,57.305 581.095,52.428 L594.802,53.623 C591.585,64.471 582.89,70.641 570.882,70.641 L570.882,70.641 Z"
      id="Fill-2" fill="currentColor"></path>
    <polyline id="Fill-3" fill="currentColor"
      points="260.387 18.098 276.427 18.098 283.876 48.147 290.998 18.098 304.259 18.098 311.716 48.641 320.593 18.098 332.565 18.098 317.821 69.25 304.376 69.25 295.917 36.01 287.458 69.25 275.195 69.25 260.387 18.098"></polyline>
    <path
      d="M359.618,27.055 C353.146,27.055 348.679,32.629 348.493,43.572 C348.306,54.522 352.786,60.191 359.056,60.191 C363.968,60.191 368.606,56.41 369.45,49.742 L382.196,51.233 C380.53,63.078 371.104,70.641 358.038,70.641 C342.888,70.641 332.415,59.791 332.688,43.772 C332.966,27.452 343.913,16.703 360.108,16.703 C372.438,16.703 380.884,23.868 382.347,36.111 L369.14,37.5 C368.315,30.736 364.112,27.055 359.618,27.055"
      id="Fill-4" fill="currentColor"></path>
    <path
      d="M401.663,54.022 C401.663,58.199 404.317,60.686 409.044,60.686 C414.995,60.686 419.534,55.713 419.534,48.746 L419.534,44.17 C407.716,44.369 401.663,47.953 401.663,54.022 Z M419.821,60.988 C416.511,67.156 410.933,70.541 403.743,70.541 C393.161,70.541 386.731,64.369 386.731,54.914 C386.731,42.877 397.696,36.508 419.534,36.309 L419.534,34.119 C419.534,28.945 416.796,26.26 411.403,26.26 C405.452,26.26 402.044,28.746 401.292,33.418 L388.056,31.928 C390.323,21.877 398.454,16.703 412.159,16.703 C427.478,16.703 433.431,22.674 433.431,36.703 L433.431,59.395 C433.431,63.576 433.812,66.859 434.849,69.25 L420.767,69.25 C420.194,66.859 419.911,64.074 419.821,60.988 L419.821,60.988 Z"
      id="Fill-5" fill="currentColor"></path>
    <path
      d="M450.974,53.225 C452.2,57.904 456.45,60.588 462.788,60.588 C468.177,60.588 471.204,58.199 471.204,55.016 C471.204,50.537 466.946,50.738 459.386,49.145 C447.286,46.656 441.231,42.576 441.231,33.322 C441.231,23.767 448.983,16.605 461.841,16.605 C472.337,16.605 479.425,21.279 482.454,29.941 L471.015,32.127 C469.308,28.047 466.19,26.358 461.276,26.358 C456.548,26.358 453.995,28.148 453.995,31.432 C453.995,35.906 458.913,35.711 468.081,37.699 C479.142,40.09 484.534,44.068 484.534,53.025 C484.534,63.078 476.022,70.34 461.562,70.34 C449.839,70.34 441.519,64.471 439.155,54.914 L450.974,53.225"
      id="Fill-6" fill="currentColor"></path>
    <polygon id="Fill-7" fill="currentColor"
      points="524.651 69.25 539.329 69.25 539.329 0.168 524.651 0.168"></polygon>
    <path
      d="M225.566,110.91 C227.679,107.381 230.17,104.732 233.041,102.971 C235.909,101.207 239.151,100.32 242.779,100.32 C245.892,100.32 248.507,100.943 250.622,102.184 C252.737,103.422 254.429,105.385 255.706,108.061 C256.981,110.744 257.619,113.746 257.619,117.072 L257.619,140.285 C257.619,142.016 257.998,143.246 258.77,143.975 C259.536,144.703 260.821,145.07 262.631,145.07 L265.941,145.07 L265.941,148.814 L240.969,148.814 L240.969,145.07 L243.338,145.07 C245.558,145.07 247.104,144.717 247.979,144.004 C248.854,143.297 249.292,142.238 249.292,140.82 L249.292,120.522 C249.292,116.102 248.625,112.834 247.288,110.709 C245.419,107.67 242.583,106.152 238.783,106.152 C235.009,106.152 231.863,107.688 229.346,110.752 C226.826,113.824 225.566,117.826 225.566,122.752 L225.566,140.314 C225.566,142.035 225.956,143.258 226.746,143.982 C227.533,144.711 228.826,145.07 230.632,145.07 L233.891,145.07 L233.891,148.814 L208.502,148.814 L208.502,145.07 L211.779,145.07 C213.427,145.07 214.68,144.729 215.538,144.053 C216.396,143.375 216.826,142.529 216.826,141.506 L216.826,110.695 C216.826,108.66 216.281,107.123 215.195,106.064 C214.104,105.016 212.541,104.484 210.5,104.484 L208.083,104.484 L208.083,101.156 L224.943,100.309 L225.566,110.91"
      id="Fill-8" fill="currentColor"></path>
    <path
      d="M280.323,81.385 C281.845,81.385 283.188,81.961 284.343,83.115 C285.492,84.268 286.07,85.627 286.07,87.186 C286.07,88.713 285.507,90.031 284.392,91.152 C283.27,92.274 281.929,92.832 280.371,92.832 C278.814,92.832 277.464,92.27 276.333,91.129 C275.188,89.992 274.625,88.664 274.625,87.131 C274.625,85.613 275.199,84.268 276.354,83.115 C277.504,81.961 278.83,81.385 280.323,81.385 Z M266.928,101.363 L286.07,100.738 L286.07,141.668 C286.07,142.789 286.343,143.578 286.885,144.053 C287.664,144.729 288.646,145.07 289.838,145.07 L295.227,145.07 L295.227,148.814 L267.965,148.814 L267.965,145.07 L273.007,145.07 C274.497,145.07 275.591,144.711 276.288,143.981 C276.98,143.252 277.329,142.191 277.329,140.805 L277.329,110.846 C277.329,108.953 276.783,107.522 275.699,106.559 C274.609,105.594 272.994,105.111 270.854,105.111 L266.928,105.111 L266.928,101.363 L266.928,101.363 Z"
      id="Fill-9" fill="currentColor"></path>
    <path
      d="M491.058,81.385 C492.581,81.385 493.921,81.961 495.073,83.115 C496.224,84.268 496.804,85.627 496.804,87.186 C496.804,88.713 496.239,90.031 495.126,91.152 C493.999,92.274 492.661,92.832 491.104,92.832 C489.548,92.832 488.196,92.27 487.063,91.129 C485.917,89.992 485.354,88.664 485.354,87.131 C485.354,85.613 485.929,84.268 487.085,83.115 C488.237,81.961 489.562,81.385 491.058,81.385 Z M477.659,101.363 L496.804,100.738 L496.804,141.668 C496.804,142.789 497.075,143.578 497.616,144.053 C498.401,144.729 499.38,145.07 500.573,145.07 L505.962,145.07 L505.962,148.814 L478.696,148.814 L478.696,145.07 L483.737,145.07 C485.229,145.07 486.323,144.711 487.021,143.981 C487.712,143.252 488.063,142.191 488.063,140.805 L488.063,110.846 C488.063,108.953 487.519,107.522 486.431,106.559 C485.341,105.594 483.728,105.111 481.585,105.111 L477.659,105.111 L477.659,101.363 L477.659,101.363 Z"
      id="Fill-10" fill="currentColor"></path>
    <path
      d="M291.916,101.156 L315.438,101.156 L315.438,104.693 C312.306,104.764 310.304,105.037 309.44,105.525 C308.573,106.018 308.14,106.713 308.14,107.621 C308.14,108.369 308.29,109.104 308.591,109.844 L321.155,137.992 L332.735,110.715 C332.903,110.244 332.989,109.773 332.989,109.299 C332.989,106.834 330.53,105.303 325.63,104.693 L325.63,101.156 L345.403,101.156 L345.403,104.693 C343.397,104.897 341.8,105.434 340.614,106.305 C339.425,107.178 338.503,108.342 337.858,109.82 L320.345,150.273 L317.521,150.273 L298.958,108.695 C298.275,107.231 297.449,106.207 296.482,105.623 C295.511,105.033 293.989,104.729 291.916,104.693 L291.916,101.156"
      id="Fill-11" fill="currentColor"></path>
    <path
      d="M353.069,121.758 L374.108,121.758 C375.354,121.758 376.317,121.346 377.007,120.514 C377.696,119.682 378.046,118.264 378.046,116.258 C378.046,112.529 376.864,109.357 374.495,106.744 C372.128,104.127 369.343,102.824 366.126,102.824 C362.532,102.824 359.485,104.398 356.983,107.557 C354.481,110.715 353.177,115.449 353.069,121.758 Z M387.411,125.297 L353.069,125.297 C353.243,132.557 354.606,137.678 357.179,140.66 C360.122,144.012 363.874,145.693 368.421,145.693 C375.136,145.693 380.526,141.949 384.603,134.453 L387.831,135.865 C382.868,145.475 375.716,150.273 366.354,150.273 C359.968,150.273 354.604,147.959 350.245,143.348 C345.884,138.727 343.704,132.822 343.704,125.623 C343.704,117.885 345.853,111.623 350.14,106.854 C354.433,102.086 359.712,99.701 365.993,99.701 C370.604,99.701 374.591,100.893 377.95,103.264 C381.302,105.639 383.827,109.051 385.526,113.49 C386.716,116.609 387.345,120.551 387.411,125.297 L387.411,125.297 Z"
      id="Fill-12" fill="currentColor"></path>
    <g id="Group-16" transform="translate(434.817000, 100.320000)">
      <mask id="mask-2" fill="white">
        <use xlink:href="#path-1"></use>
      </mask>
      <g id="Clip-14"></g>
      <path
        d="M3.33,30.805 C5.438,36.692 7.866,40.762 10.606,43.022 C13.338,45.287 16.715,46.414 20.731,46.414 C24.436,46.414 27.286,45.602 29.272,43.975 C31.264,42.35 32.256,40.289 32.256,37.786 C32.256,36.346 31.891,35.098 31.162,34.016 C30.43,32.934 29.42,32.133 28.129,31.602 C26.834,31.075 23.481,30.293 18.079,29.258 C12.911,28.235 9.307,27.159 7.276,26.041 C5.248,24.92 3.662,23.373 2.534,21.405 C1.401,19.434 0.836,17.291 0.836,14.979 C0.836,11.481 1.995,8.307 4.332,5.453 C7.342,1.821 11.549,0 16.963,0 C21.086,0 24.907,1.336 28.424,4 L31.776,0.418 L33.854,0.418 L35.172,17.487 L31.842,17.487 C30.348,12.541 28.33,8.985 25.786,6.805 C23.237,4.633 20.098,3.543 16.371,3.543 C13.147,3.543 10.621,4.346 8.787,5.95 C6.95,7.557 6.037,9.514 6.037,11.83 C6.037,13.871 6.879,15.561 8.579,16.907 C10.237,18.289 13.496,19.366 18.364,20.151 C24.008,21.098 27.688,21.899 29.389,22.539 C32.149,23.557 34.289,25.119 35.811,27.229 C37.325,29.342 38.086,31.922 38.086,34.957 C38.086,39.143 36.434,42.692 33.131,45.594 C29.823,48.498 25.627,49.953 20.545,49.953 C15.832,49.953 11.459,48.403 7.428,45.319 L3.713,49.534 L1.016,49.534 L-1.13686838e-13,30.805 L3.33,30.805"
        id="Fill-13" fill="currentColor" mask="url(#mask-2)"></path>
      <path
        d="M106.258,0.836 L129.149,0.836 L129.149,4.373 L127.006,4.373 C124.996,4.373 123.621,4.633 122.895,5.143 C122.162,5.659 121.799,6.399 121.799,7.358 C121.799,7.786 121.901,8.217 122.11,8.647 L135.452,37.161 L145.422,13.52 C146.131,11.844 146.491,10.2 146.491,8.596 C146.491,7.358 145.995,6.393 145.022,5.709 C144.039,5.02 142.079,4.577 139.143,4.373 L139.143,0.836 L158.907,0.836 L158.907,4.373 C155.155,4.743 152.633,6.418 151.344,9.405 L133.438,50.426 C130.395,57.403 127.364,62.178 124.338,64.76 C121.286,67.375 118.002,68.68 114.502,68.68 C111.957,68.68 109.907,67.981 108.364,66.594 C106.821,65.2 106.043,63.483 106.043,61.446 C106.043,59.918 106.526,58.657 107.471,57.68 C108.422,56.688 109.61,56.196 111.034,56.196 C112.329,56.196 113.412,56.618 114.297,57.457 C115.172,58.291 115.621,59.305 115.621,60.481 C115.621,60.852 115.551,61.354 115.416,61.996 C115.282,62.494 115.213,62.864 115.213,63.102 C115.213,63.912 115.739,64.315 116.795,64.315 C117.916,64.315 119.19,63.912 120.61,63.114 C122.028,62.311 123.35,61.03 124.579,59.26 C125.809,57.493 127.946,53.493 131.002,47.246 L112.946,8.647 C112.291,7.325 111.491,6.34 110.52,5.694 C109.545,5.047 108.125,4.608 106.258,4.373 L106.258,0.836"
        id="Fill-15" fill="currentColor" mask="url(#mask-2)"></path>
    </g>
    <polyline id="Fill-17" fill="currentColor"
      points="143.96 0.17 162.711 0.17 188.867 42.801 188.849 0.17 203.477 0.17 203.477 69.236 187.861 69.236 158.597 21.279 158.566 69.236 143.96 69.236 143.96 0.17"></polyline>
    <path
      d="M135.27,79.633 L166.52,79.633 L166.52,83.375 L161.287,83.375 C159.438,83.375 158.143,83.684 157.408,84.291 C156.668,84.904 156.3,85.834 156.3,87.086 L156.3,124.854 C156.3,129.291 156.69,132.643 157.466,134.912 C158.613,138.268 160.72,140.947 163.778,142.939 C166.833,144.943 170.832,145.936 175.768,145.936 C182.591,145.936 187.794,144.172 191.38,140.629 C194.956,137.09 196.751,132.357 196.751,126.43 L196.751,96.59 C196.751,93.535 196.535,91.227 196.109,89.65 C195.68,88.078 195.064,86.85 194.263,85.969 C193.464,85.092 192.446,84.44 191.221,84.012 C189.987,83.59 187.938,83.375 185.076,83.375 L185.076,79.633 L213.637,79.633 L213.637,83.375 L211.611,83.375 C208.429,83.375 206.062,84.233 204.503,85.943 C202.946,87.66 202.17,90.145 202.17,93.4 L202.17,125.719 C202.17,133.787 199.866,139.981 195.254,144.283 C190.066,149.137 183.166,151.559 174.552,151.559 C167.093,151.559 161.227,150.5 156.952,148.387 C152.679,146.262 149.576,143.217 147.645,139.248 C146.186,136.238 145.461,132.436 145.461,127.854 L145.461,87.088 C145.461,85.941 145.061,85.031 144.27,84.369 C143.475,83.707 142.29,83.375 140.706,83.375 L135.27,83.375 L135.27,79.633"
      id="Fill-18" fill="currentColor"></path>
    <path
      d="M518.032,58.633 C516.39,58.955 514.886,59.098 513.585,59.098 C508.507,59.098 507.415,56.811 507.415,51.033 L507.415,28.047 L518.032,28.047 L518.032,18.098 L507.415,18.098 L507.415,3.26 L492.587,5.975 L492.587,18.098 L485.987,18.098 L485.987,28.047 L492.587,28.047 L492.587,52.629 C492.587,65.168 497.366,70.641 509.401,70.641 C512.147,70.641 515.044,70.326 518.032,69.768 L518.032,58.633"
      id="Fill-19" fill="currentColor"></path>
    <path
      d="M537.915,130.717 C537.646,135.732 536.692,139.328 535.069,141.506 C533.44,143.688 531.478,144.775 529.167,144.775 C527.237,144.775 525.64,144.059 524.39,142.627 C523.134,141.193 522.507,139.131 522.507,136.434 L522.507,105.297 L537.458,105.297 L537.458,101.162 L522.507,101.162 L522.507,81.367 L519.011,81.367 C518.696,88.02 517.073,93.225 514.12,96.959 C512.073,99.518 509.091,101.123 505.177,101.779 L505.177,105.297 L513.651,105.297 L513.651,137.873 C513.651,141.428 514.774,144.305 517.032,146.492 C519.284,148.688 522.409,149.783 526.407,149.783 C530.739,149.783 534.271,148.221 536.991,145.096 C539.712,141.971 541.175,137.176 541.38,130.717 L537.915,130.717"
      id="Fill-20" fill="currentColor"></path>
    <path
      d="M425.548,99.443 C417.228,99.443 410.212,109.17 407.331,120.043 L407.331,100.32 L390.063,101.156 L390.063,104.904 L394.19,104.904 C396.007,104.904 397.401,105.434 398.374,106.504 C399.354,107.57 399.837,109.25 399.837,111.557 L399.837,141.873 C399.837,142.752 399.429,143.508 398.618,144.131 C397.802,144.758 396.597,145.07 395.005,145.07 L390.271,145.07 L390.271,148.814 L420.03,148.814 L420.03,145.07 L413.972,145.07 C412.005,145.07 410.614,144.768 409.802,144.154 C408.989,143.543 408.579,142.662 408.579,141.514 L408.579,132.676 C408.579,123.522 412.45,107.893 420.196,107.893 C422.312,107.893 421.886,111.272 426.11,111.272 C429.489,111.272 431.884,108.736 431.884,105.498 C431.884,101.838 428.927,99.443 425.548,99.443"
      id="Fill-21" fill="currentColor"></path>
    <g id="Group-25" transform="translate(0.060000, 0.170000)">
      <mask id="mask-4" fill="white">
        <use xlink:href="#path-3"></use>
      </mask>
      <g id="Clip-23"></g>
      <path
        d="M64.438,95.981 C60.929,95.981 58.083,98.829 58.083,102.334 C58.083,105.842 60.929,108.689 64.438,108.689 C67.946,108.689 70.793,105.842 70.793,102.334 C70.793,98.829 67.946,95.981 64.438,95.981"
        id="Fill-22" fill="currentColor" mask="url(#mask-4)"></path>
      <path
        d="M3.683,60.61 L125.191,60.61 L125.191,3.742 L3.683,3.742 L3.683,60.61 Z M98.059,112.521 C88.506,106.261 79.018,104.59 73.394,108.019 C73.703,108.414 73.892,108.913 73.892,109.456 C73.892,110.742 72.845,111.79 71.556,111.79 C71.014,111.79 70.516,111.605 70.119,111.294 C66.692,116.916 68.362,126.405 74.623,135.958 C71.33,136.952 67.905,137.47 64.438,137.47 C60.97,137.47 57.546,136.952 54.252,135.956 C60.513,126.405 62.184,116.914 58.756,111.294 C58.36,111.605 57.862,111.79 57.318,111.79 C56.03,111.79 54.984,110.742 54.984,109.456 C54.984,108.913 55.172,108.41 55.484,108.017 C49.859,104.588 40.369,106.259 30.817,112.519 C29.823,109.227 29.304,105.803 29.304,102.334 L29.301,102.334 C29.301,98.866 29.82,95.441 30.816,92.149 C40.367,98.41 49.856,100.081 55.481,96.652 C55.171,96.255 54.984,95.758 54.984,95.217 C54.984,93.927 56.03,92.881 57.318,92.881 C57.862,92.881 58.36,93.067 58.756,93.377 C62.184,87.757 60.513,78.266 54.252,68.714 C57.546,67.72 60.97,67.203 64.438,67.203 C67.905,67.203 71.33,67.72 74.623,68.714 C68.362,78.266 66.692,87.757 70.119,93.379 C70.517,93.069 71.014,92.883 71.556,92.883 C72.845,92.883 73.892,93.931 73.892,95.219 C73.892,95.76 73.703,96.259 73.394,96.656 C79.017,100.083 88.505,98.412 98.058,92.151 C99.052,95.445 99.571,98.87 99.571,102.34 L99.573,102.34 C99.573,105.805 99.055,109.228 98.059,112.521 Z M-0.06,0 C-0.06,0 -0.056,40.81 -0.056,60.61 C-0.056,117.874 64.438,150.997 64.438,150.997 C64.438,150.997 128.932,118.123 128.932,60.61 C128.932,40.81 128.934,0 128.934,0 L-0.06,0 L-0.06,0 Z"
        id="Fill-24" fill="currentColor" mask="url(#mask-4)"></path>
    </g>
    <path
      d="M74.316,44.395 C74.912,44.816 74.631,45.285 74.346,45.553 C74.057,45.822 70.971,47.844 68.971,47.223 C67.446,46.748 67.45,44.01 65.338,43.123 C63.64,42.412 61.745,43.697 61.745,43.697 C64.735,43.558 65.629,47.85 65.629,47.85 C61.067,44.274 56.831,46.705 56.531,49.02 C60.569,46.58 63.67,49.922 63.67,49.922 C62.231,50.127 59.12,52.424 61.456,56.09 C61.897,51.785 66.155,51.051 66.155,51.051 C65.787,53.068 67.597,57.025 70.931,56.203 C68.508,54.611 68.885,52.967 68.885,51.934 C68.885,51.287 69.538,50.912 70.403,50.82 C75.141,50.316 75.141,53.906 75.141,53.906 C76.437,53.777 79.94,49.143 79.77,46.691 C81.098,48.672 84.581,49.768 87.105,48.029 C83.861,47.506 82.508,44.314 82.335,43.702 C82.164,43.095 81.356,39.199 79.865,37.708 C77.749,35.593 74.41,37.222 72.622,38.904 C72.07,39.424 70.436,42.348 72.399,43.236 C73.747,43.846 74.003,44.172 74.316,44.395"
      id="Fill-26" fill="currentColor"></path>
    <path
      d="M23.159,34.945 C18.224,34.945 12.712,25.061 12.295,24.209 C15.081,24.004 14.953,22.63 14.676,21.733 C13.649,18.414 7.407,21.526 6.834,22.099 C7.049,18.873 10.488,17.588 12.661,17.973 C12.277,13.047 7.723,12.803 7.723,12.803 C11.578,9.942 14.109,13.586 14.92,16.378 C18.824,13.485 15.121,9.535 14.418,9.166 C14.418,9.166 17.531,8.889 18.783,12.075 C19.954,15.041 18.436,16.885 18.436,16.885 C18.436,16.885 19.436,16.855 20.084,16.402 C22.265,14.877 22.167,12.853 22.052,12.457 C22.052,12.457 23.678,13.478 23.475,15.377 C23.338,16.652 22.061,17.714 21.521,18.41 C20.984,19.107 19.676,20.604 21.315,25.367 C22.115,27.695 23.35,29.475 24.179,29.862 C23.673,30.864 22.766,32.022 23.159,34.945"
      id="Fill-27" fill="currentColor"></path>
    <path
      d="M12.387,42.133 C9.336,42.356 3.881,43.594 6.67,49.238 C6.786,45.41 11.915,45.039 12.828,45.295 C10.344,49.465 13.242,53.506 15.499,53.277 C13.174,51.431 15.252,48.801 15.52,47.852 C15.707,47.18 16.563,46.775 17.395,47.015 C20.205,47.827 18.161,50.209 18.161,50.209 C24.366,52.993 27.167,50.56 28.328,49.214 C28.328,49.214 30.211,51.063 28.354,52.424 C29.359,53.053 35.224,53.267 37.413,50.532 C38.135,52.743 45.067,52.722 46.254,51.781 C46.254,51.781 44.9,51.024 44.9,49.957 C44.9,48.217 46.812,46.889 49.188,45.852 C51.949,44.647 56.466,44.099 61.042,41.928 C69.471,37.927 79.84,30.523 83.184,35.16 C84.888,37.523 84.47,39.832 86.171,41.45 C87.872,43.074 90.62,42.344 92.295,42.147 C96.423,41.66 102.248,41.049 105.856,40.798 C109.456,40.548 110.416,43.243 110.493,43.463 C110.771,44.249 110.441,44.742 109.921,44.707 C108.718,44.632 106.534,44.08 105.269,44.797 C103.452,45.825 103.963,48.314 103.963,48.314 C105.498,45.744 109.66,46.102 111.12,46.358 C109.718,47.567 107.099,52.302 110.835,54.324 C109.861,50.739 113.228,48.215 113.228,48.215 C113.532,49.226 115.746,51.27 120.612,50.99 C115.487,49.373 116.304,46.743 116.304,46.743 C117.975,47.476 121.568,46.994 123.269,43.221 C117.464,46.774 115.853,43.393 115.627,42.996 C114.594,41.17 117.38,40.802 117.38,40.802 C116.755,39.564 108.784,34.65 112.751,33.098 C111.355,32.291 108.073,32.627 105.118,34.784 C105.233,34.132 105.146,32.213 104.253,31.405 C104.253,31.405 99.47,34.733 95.688,34.089 C91.908,33.444 93.432,27.807 93.432,27.807 C93.432,27.807 103.146,28.989 106.757,27.318 C110.372,25.648 110.344,23.068 113.371,21.494 C115.804,20.227 118.706,21.273 118.706,21.273 C118.26,18.778 113.532,16.821 109.896,20.643 C109.896,20.643 109.643,13.567 100.978,14.401 C95.606,14.918 91.554,17.135 86.019,18.147 C80.619,19.135 75.52,20.082 72.105,20.082 C68.688,20.082 63.768,19.151 63.401,15.418 C63.182,13.196 64.933,12.242 66.565,12.242 C69.157,12.242 72.786,13.771 75.711,14.781 C77.799,15.505 79.856,15.517 80.985,15.517 C84.049,15.517 87.902,13.984 89.833,13.228 C91.765,12.471 93.286,11.998 96.986,12.312 C95.833,10.803 87.592,7.207 81.981,7.518 C76.64,7.814 76.327,10.273 71.127,10.051 C65.926,9.832 61.311,10.695 61.165,14.623 C61.018,18.567 64.497,22.734 73.031,22.109 C76.551,21.892 89.495,19.72 92.081,18.902 C95.521,17.815 108.478,15.276 106.019,21.733 C105.495,23.11 103.931,24.567 100.103,24.567 C96.274,24.567 91.499,23.468 90.228,23.249 C88.952,23.027 85.534,22.633 82.182,23.102 C79.062,23.539 57.633,26.603 53.798,27.147 C53.798,28.407 52.996,32.587 56.702,34.852 C55.073,35.608 51.872,37.301 48.841,35.93 C48.604,36.944 49.836,38.82 51.287,40.399 C50.073,40.795 45.483,42.955 43.088,41.398 C42.124,43.12 39.252,47.447 32.333,46.024 C32.775,45.691 32.516,43.605 30.966,42.896 C29.257,43.125 29.051,44.076 22.295,43.291 C20.248,43.057 18.573,42.39 17.984,41.073 C17.359,39.691 18.234,37.729 17.801,36.631 C16.895,34.328 13.463,34.633 13.463,34.633 C16.434,36.92 14.453,40.16 14.453,40.16 C11.607,37.316 7.234,34.565 5.725,39.582 C10.15,37.945 12.431,42.131 12.431,42.131"
      id="Fill-28" fill="currentColor"></path>
    <path
      d="M48.076,23.833 C47.887,24.799 46.706,25.253 45.229,24.97 C42.352,24.419 42.345,22.152 43.27,21.766 C43.625,22.034 44.512,22.616 45.315,22.779 C46.528,23.024 47.044,22.795 47.823,22.768 C48.19,22.758 48.153,23.444 48.076,23.833 Z M40.463,31.274 C38.104,34.559 35.742,33.086 35.742,33.086 C35.742,33.086 33.062,32.04 34.355,28.202 C32.616,26.987 33.254,25.4 33.784,25.109 C34.034,25.626 34.202,26.621 35.699,27.372 C37.197,28.127 37.765,27.708 37.934,27.373 C38.241,26.764 37.491,26.199 36.96,25.624 C36.444,25.059 36.324,24.164 36.682,23.728 C37.133,23.177 37.988,23.2 38.365,23.479 C36.529,23.807 38.939,25.308 39.506,25.593 C40.077,25.877 42.723,26.937 41.893,25.271 C42.34,25.407 42.84,26.045 42.665,26.737 C42.53,27.284 41.738,27.721 40.979,27.642 C40.199,27.559 39.299,27.297 38.994,27.902 C38.823,28.241 38.947,29.054 40.446,29.807 C41.942,30.56 42.523,30.068 43.28,29.932 C43.359,30.53 42.476,31.943 40.463,31.274 Z M35.487,17.568 C35.76,17.269 36.356,16.763 36.57,17.073 C37.022,17.729 37.146,18.295 38.086,19.143 C38.708,19.705 39.731,20.082 40.167,20.209 C40.41,21.207 38.487,22.638 36.283,20.605 C35.151,19.559 34.805,18.311 35.487,17.568 Z M56.153,16.959 C54.469,13.664 50.686,16.047 50.686,16.047 C51.7,14.878 50.762,11.13 49.528,10.334 C49.493,12.227 47.901,12.811 46.686,12.496 C45.17,12.102 45.752,9.964 46.206,9.064 C45.04,8.99 42.578,8.817 40.905,11.245 C40.462,8.216 37.751,6.969 34.913,7.705 C37.926,11.175 31.372,14.926 29.094,13.839 C28.007,16.082 31.643,18.617 32.14,17.903 C30.215,20.674 27.106,20.061 25.382,19.471 C25.325,20.695 26.654,23.27 29.206,23.27 C27.871,25.293 25.053,25.445 24.21,25.022 C23.835,26.965 26.989,28.698 27.847,28.848 C25.258,32.983 26.14,38.002 27.581,40 L28.547,41.707 C30.67,37.464 35.507,39.146 34.702,43.195 C39.27,43.684 41.546,39.711 42.534,37.289 C44.094,39.033 46.078,39.233 47.162,38.988 C45.676,36.21 46.336,33.339 47,32.32 C48.552,33.823 50.835,34.142 51.952,33.773 C50.479,31.732 50.452,26.681 50.872,24.917 C51.907,25.609 54.155,26.317 55.242,23.793 C53.227,23.426 52.788,16.854 56.153,16.959 L56.153,16.959 Z"
      id="Fill-29" fill="currentColor"></path>
  </g>
</svg>