<svg xmlns="http://www.w3.org/2000/svg" viewBox="0 0 293.999 76.27" id="logo" fill="currentColor">
  <path
    d="M418.215,1194.95q-.46,3.894-4.229,7.907-5.315,5.781-14.474,6.326v-9.312a8.91,8.91,0,0,0,4.7-1.91,9.645,9.645,0,0,0,2.349-3.011Z"
    transform="translate(-282.057 -1148.707)" />
  <path d="M643.825,1097.245h-11.41v-59.168h11.41Z" transform="translate(-446.487 -1038.077)" />
  <path
    d="M713.692,1105.011a18,18,0,0,0,4.557-1,3.441,3.441,0,0,0,2.461-3.252,3.847,3.847,0,0,0-1.888-3.713,11.889,11.889,0,0,0-5.539-1.024q-4.1,0-5.8,2.007a8.287,8.287,0,0,0-1.623,4.014h-11.01a16.766,16.766,0,0,1,3.217-9.433q4.543-5.78,15.6-5.781a27.753,27.753,0,0,1,12.786,2.85q5.589,2.851,5.589,10.758v20.071q0,2.087.08,5.058a6.361,6.361,0,0,0,.681,3.051,4.081,4.081,0,0,0,1.682,1.325v1.686H722.071a12.753,12.753,0,0,1-.721-2.489q-.2-1.164-.321-2.649a23.568,23.568,0,0,1-5.477,4.375,16.513,16.513,0,0,1-8.376,2.127,14.428,14.428,0,0,1-9.846-3.392q-3.887-3.391-3.886-9.614,0-8.069,6.252-11.681,3.428-1.966,10.083-2.81Zm6.977,5.339a12.575,12.575,0,0,1-2.212,1.1,18.661,18.661,0,0,1-3.064.783l-2.6.482a17.028,17.028,0,0,0-5.245,1.565,5.228,5.228,0,0,0-2.7,4.857,5.083,5.083,0,0,0,1.646,4.235,6.249,6.249,0,0,0,4,1.3,11.9,11.9,0,0,0,6.891-2.167q3.151-2.168,3.272-7.908Z"
    transform="translate(-489.574 -1072.457)" />
  <path
    d="M892.907,1058.942q4.9,6.223,4.9,16.057,0,10.2-4.829,16.9a17.5,17.5,0,0,1-22.213,4.536,17.4,17.4,0,0,1-4.266-4.5v5.5h-11.25v-59.088h11.41v21.034a16.725,16.725,0,0,1,4.795-4.656,14.285,14.285,0,0,1,7.9-2.007Q888.01,1052.72,892.907,1058.942ZM883.37,1085.6a16.246,16.246,0,0,0,2.463-9.393,21.07,21.07,0,0,0-1.211-7.707,8.433,8.433,0,0,0-8.477-5.781,8.56,8.56,0,0,0-8.6,5.66,21.13,21.13,0,0,0-1.211,7.787,16.236,16.236,0,0,0,2.5,9.313q2.5,3.694,7.629,3.693A7.908,7.908,0,0,0,883.37,1085.6Z"
    transform="translate(-603.805 -1038.269)" />
  <g transform="translate(0 13.964)">
    <path
      d="M14.562,1098.6q-2.7,3.546-2.7,10.121t2.7,10.141a8.639,8.639,0,0,0,5.5,3.372v9.716q-9.568-.629-14.525-6.764a27.2,27.2,0,0,1,0-32.868q4.959-6.227,14.525-6.864v9.791A8.65,8.65,0,0,0,14.562,1098.6Z"
      transform="translate(-0.009 -1085.45)" />
    <path
      d="M103.958,1108.741a25.371,25.371,0,0,1-5.525,16.465q-4.916,6.084-14.36,6.751V1122.2a8.559,8.559,0,0,0,5.233-3.323q2.68-3.567,2.682-10.141T89.3,1098.62a8.561,8.561,0,0,0-5.233-3.307v-9.83q9.445.682,14.36,6.853A25.539,25.539,0,0,1,103.958,1108.741Z"
      transform="translate(-59.357 -1085.474)" />
  </g>
  <g transform="translate(47.868 14.331)">
    <path
      d="M174.925,1104.516a22.206,22.206,0,0,0-1.214,7.948q0,7.629,4.081,10.718a8.945,8.945,0,0,0,3.877,1.651v9.08a12.364,12.364,0,0,1-3.85-1.94,16.859,16.859,0,0,1-3.706-4.214v22.8h-11.29v-60.975h10.929v6.462a18.37,18.37,0,0,1,3.95-4.5,13.828,13.828,0,0,1,3.968-2.124v9.335Q176.9,1099.542,174.925,1104.516Z"
      transform="translate(-162.823 -1088.622)" />
    <path
      d="M261.625,1108.1v1.79q-.2,10.888-5.209,16.705a16.922,16.922,0,0,1-13.436,6.061c-.065,0-.128,0-.191,0V1122.7a8.052,8.052,0,0,0,4.549-3.331q2.525-3.7,2.528-9.836a17.106,17.106,0,0,0-2.327-8.95,7.523,7.523,0,0,0-4.75-3.563V1086.7c.156,0,.315-.006.473-.006a17.231,17.231,0,0,1,13.034,5.66Q261.423,1097.786,261.625,1108.1Z"
      transform="translate(-219.279 -1086.693)" />
  </g>
  <g transform="translate(93.479 14.223)">
    <path
      d="M332.774,1098.166a11.9,11.9,0,0,0-3.04,6.774h7.54v7.547h-7.82q.265,6.582,4.563,9.231a10.372,10.372,0,0,0,3.257,1.328v9.455a23.528,23.528,0,0,1-12.651-5.247q-6.661-5.384-6.66-17.518,0-11.37,6.013-17.436a20.394,20.394,0,0,1,13.3-5.974v9.536A8.107,8.107,0,0,0,332.774,1098.166Z"
      transform="translate(-317.963 -1086.327)" />
    <path
      d="M418.822,1110.238v.961q0,.626-.012,1.289h-19.3v-7.547h7.452a9.038,9.038,0,0,0-7.452-9.052v-9.561a23.716,23.716,0,0,1,7.905,1.956,17.783,17.783,0,0,1,7.542,6.475,21.517,21.517,0,0,1,3.476,9.044A46.507,46.507,0,0,1,418.822,1110.238Z"
      transform="translate(-375.536 -1086.327)" />
  </g>
  <g transform="translate(140.033 14.25)">
    <path
      d="M493.647,1090.451v8.594a7.578,7.578,0,0,0-4.843,4.511,17.127,17.127,0,0,0-1.113,6.664V1133.9H476.308v-43.676h11.024v6.383a19.341,19.341,0,0,1,4.144-4.856A12.1,12.1,0,0,1,493.647,1090.451Z"
      transform="translate(-476.308 -1089.105)" />
    <path
      d="M568.515,1101.752v29.464h-11.69V1104.6a12.255,12.255,0,0,0-.914-5.3,5.908,5.908,0,0,0-4.762-3.262v-9.52a19.8,19.8,0,0,1,2.057-.1,16.7,16.7,0,0,1,11.022,3.553Q568.514,1093.521,568.515,1101.752Z"
      transform="translate(-529.146 -1086.417)" />
  </g>
</svg>